<svg width="52" height="10" viewBox="0 0 52 10" fill="none" xmlns="http://www.w3.org/2000/svg">
<g clip-path="url(#clip0_0_1571)">
<path d="M4.84194 5.03486C4.84194 4.18762 4.20471 3.59217 3.42195 3.59217C2.63919 3.59217 2.00195 4.19766 2.00195 5.03486C2.00195 5.86202 2.63919 6.47758 3.42195 6.47758C4.2055 6.47679 4.84194 5.88209 4.84194 5.03486ZM4.85313 7.55653V6.9008C4.46695 7.35495 3.89208 7.63684 3.20367 7.63684C1.77328 7.63684 0.6875 6.52699 0.6875 5.03486C0.6875 3.552 1.81486 2.42285 3.23565 2.42285C3.90409 2.42285 4.46777 2.70552 4.85392 3.14884V2.51321H6.13801V7.55653H4.85313Z" fill="black"/>
<path d="M12.3734 6.43659C11.924 6.43659 11.7993 6.27516 11.7993 5.85193V3.61294H12.6244V2.51316H11.7993V1.28284H10.4833V2.51316H8.78821V2.20654C8.78821 1.78254 8.95533 1.62112 9.41508 1.62112H9.70371V0.642578H9.07046C7.98467 0.642578 7.47296 0.985491 7.47296 2.03431V2.51238H6.74219V3.61218H7.47296V7.55568H8.78903V3.61218H10.4841V6.08361C10.4841 7.11236 10.891 7.55647 11.956 7.55647H12.6348V6.43659H12.3734Z" fill="black"/>
<path d="M17.0936 4.58054C17 3.92481 16.446 3.5317 15.7991 3.5317C15.1515 3.5317 14.619 3.91478 14.4839 4.58054H17.0936ZM14.4727 5.36754C14.567 6.1136 15.1203 6.53762 15.8199 6.53762C16.3732 6.53762 16.8018 6.28505 17.052 5.88189H18.3993C18.0858 6.95081 17.0936 7.63663 15.7888 7.63663C14.212 7.63663 13.1055 6.56772 13.1055 5.04469C13.1055 3.52166 14.2752 2.42188 15.8207 2.42188C17.3767 2.42188 18.504 3.53173 18.504 5.04469C18.504 5.15593 18.4936 5.26637 18.4728 5.36754H14.4727Z" fill="black"/>
<path d="M26.8735 5.03486C26.8735 4.21773 26.2363 3.59217 25.4535 3.59217C24.6708 3.59217 24.0335 4.19766 24.0335 5.03486C24.0335 5.86202 24.6708 6.47758 25.4535 6.47758C26.2363 6.47679 26.8735 5.85199 26.8735 5.03486ZM22.7383 2.51321H24.0223V3.16892C24.4085 2.70475 24.9826 2.42285 25.6718 2.42285C27.0814 2.42285 28.188 3.54272 28.188 5.02482C28.188 6.50768 27.0606 7.6376 25.6406 7.6376C24.9826 7.6376 24.4397 7.38505 24.0639 6.96183V9.63177H22.7383V2.51321Z" fill="black"/>
<path d="M32.8146 5.03486C32.8146 4.18762 32.1782 3.59217 31.3945 3.59217C30.6118 3.59217 29.9746 4.19766 29.9746 5.03486C29.9746 5.86202 30.6118 6.47758 31.3945 6.47758C32.1782 6.47679 32.8146 5.88209 32.8146 5.03486ZM32.8259 7.55653V6.9008C32.4397 7.35495 31.8646 7.63684 31.1762 7.63684C29.7459 7.63684 28.6602 6.52699 28.6602 5.03486C28.6602 3.552 29.7875 2.42285 31.2075 2.42285C31.8759 2.42285 32.4397 2.70552 32.8259 3.14884V2.51321H34.11V7.55653H32.8259Z" fill="black"/>
<path d="M20.4208 3.0075C20.4208 3.0075 20.7478 2.42285 21.5481 2.42285C21.8903 2.42285 22.1118 2.53638 22.1118 2.53638V3.82309C22.1118 3.82309 21.6289 3.535 21.1851 3.59293C20.7414 3.65085 20.4608 4.04473 20.4624 4.57147V7.55729H19.1367V2.51399H20.4208V3.0075Z" fill="black"/>
<path d="M40.1098 2.5127L36.8677 9.61502H35.5005L36.7734 6.86939L34.6211 2.5127H36.1707L37.4299 5.4236L38.722 2.5127H40.1098Z" fill="black"/>
<path d="M50.4585 2.3988L47.2443 0.607003C46.3007 0.081049 45.1215 0.7383 45.1215 1.79098V1.9748C45.1215 2.14085 45.2133 2.29454 45.362 2.37718L45.969 2.71546C46.1472 2.81509 46.3695 2.69074 46.3695 2.49226V2.03504C46.3695 1.80643 46.6255 1.66355 46.8302 1.77785L49.614 3.33023C49.819 3.44454 49.819 3.7303 49.614 3.84384L46.8302 5.39622C46.6255 5.51052 46.3695 5.36763 46.3695 5.13902V4.89573C46.3695 3.84305 45.1902 3.18503 44.2461 3.71175L41.0319 5.50356C40.0883 6.02953 40.0883 7.34557 41.0319 7.87151L44.2461 9.66332C45.1893 10.1893 46.3695 9.53202 46.3695 8.47934V8.29553C46.3695 8.12947 46.2776 7.97654 46.1289 7.89313L45.522 7.55408C45.3438 7.45446 45.1215 7.5788 45.1215 7.77731V8.23453C45.1215 8.46314 44.8658 8.606 44.6608 8.49169L41.8769 6.93932C41.6723 6.82501 41.6723 6.53926 41.8769 6.42496L44.6608 4.87256C44.8658 4.75825 45.1215 4.90114 45.1215 5.12975V5.37305C45.1215 6.42572 46.3007 7.08376 47.2443 6.55702L50.4585 4.76521C51.402 4.24079 51.402 2.92476 50.4585 2.3988Z" fill="black"/>
</g>
<defs>
<clipPath id="clip0_0_1571">
<rect width="50.4778" height="9.42657" fill="white" transform="translate(0.6875 0.421875)"/>
</clipPath>
</defs>
</svg>
