<svg width="23" height="16" viewBox="0 0 23 16" fill="none" xmlns="http://www.w3.org/2000/svg">
<path d="M1.44713 0H21.3307C21.7145 0 22.0826 0.148914 22.3539 0.413983C22.6253 0.679052 22.7778 1.03856 22.7778 1.41343V14.5866C22.7778 14.9614 22.6253 15.3209 22.3539 15.586C22.0826 15.8511 21.7145 16 21.3307 16H1.44713C1.06333 16 0.695243 15.8511 0.423854 15.586C0.152465 15.3209 0 14.9614 0 14.5866V1.41343C0 1.03856 0.152465 0.679052 0.423854 0.413983C0.695243 0.148914 1.06333 0 1.44713 0V0Z" fill="#26A6D1"/>
<path d="M3.66891 5.55467L1.44757 10.4098H4.11029L4.44313 9.63948H5.2101L5.54294 10.4098H8.50232V9.82323L8.7628 10.4098H10.2968L10.5645 9.80909V10.4098H16.722L17.4456 9.66068L18.1691 10.4098H21.3311L19.0736 7.99284L21.3311 5.54761H18.2198L17.4962 6.25432L16.8161 5.54761H10.1303L9.55872 6.79849L8.9654 5.54761H6.26651V6.12005L5.96261 5.54761L3.66891 5.55467ZM4.18988 6.26139H5.49953L6.99007 9.54054V6.24725H8.4372L9.58767 8.60768L10.6368 6.24725H12.084V9.73135H11.2157V6.99637L9.94221 9.73135H9.14629L7.87282 6.99637V9.73135H6.08562L5.74554 8.9469H3.90769L3.57485 9.73135H2.61251L4.18988 6.26139ZM12.8726 6.26139H16.4036L17.489 7.3992L18.596 6.24725H19.6814L18.0389 7.9999L19.6814 9.73135H18.5454L17.4673 8.57234L16.3458 9.73135H12.8654V6.24725L12.8726 6.26139ZM4.82661 6.83383L4.22606 8.24725H5.42717L4.82661 6.83383ZM13.7482 6.9681V7.60414H15.6801V8.31086H13.7482V9.01757H15.9189L16.9174 7.9999L15.9189 6.9681H13.7482Z" fill="white"/>
</svg>
