<svg width="77" height="64" viewBox="0 0 77 64" fill="none" xmlns="http://www.w3.org/2000/svg">
<path fill-rule="evenodd" clip-rule="evenodd" d="M73.5871 48.4003C73.2864 48.5229 72.9432 48.3786 72.8205 48.078C71.8673 45.7416 71.0315 43.401 70.2121 41.1062C69.6246 39.4609 69.0455 37.8391 68.4375 36.2593C66.9656 32.4347 65.2822 28.7292 62.7852 25.1262C58.3153 18.6767 52.4773 13.1887 45.1797 10.2137C41.4155 8.67922 36.8345 7.93255 32.5644 8.47688C28.2989 9.02062 24.3901 10.8435 21.8699 14.4017C20.5917 16.2065 19.6766 18.3638 19.1284 20.68C21.1621 19.7303 23.3858 19.0651 25.8197 18.761C31.5854 18.0407 35.4377 22.1187 36.8661 26.9852C38.2889 31.8326 37.4047 37.7441 33.4517 40.9865C31.3254 42.7305 28.9808 43.2541 26.7653 42.7617C24.5666 42.273 22.5608 40.7997 21.0422 38.6722C18.598 35.2482 17.3693 30.7105 17.34 26.2025C17.3328 25.0863 17.3991 23.968 17.5398 22.865C12.3189 26.0362 8.49258 31.2825 5.60901 36.9588C5.46194 37.2484 5.10802 37.3638 4.8185 37.2168C4.52898 37.0697 4.41351 36.7158 4.56058 36.4262C7.63427 30.3756 11.8488 24.6347 17.779 21.3662C18.3183 18.5634 19.3568 15.9155 20.9103 13.722C23.67 9.82559 27.9191 7.88356 32.4157 7.31037C36.9075 6.73778 41.6923 7.52215 45.6236 9.1248C53.1891 12.209 59.1919 17.8771 63.7517 24.4563C66.3241 28.168 68.0469 31.9702 69.535 35.837C70.1688 37.4839 70.7527 39.1207 71.3395 40.7657C72.1452 43.0241 72.9562 45.2977 73.9093 47.6337C74.032 47.9344 73.8877 48.2776 73.5871 48.4003ZM18.8352 22.1366C18.6137 23.4635 18.5071 24.8276 18.516 26.1949C18.544 30.5139 19.7241 34.8017 21.9993 37.989C23.3893 39.9362 25.1656 41.2015 27.0204 41.6137C28.8582 42.0222 30.8383 41.6091 32.7059 40.0772C36.1772 37.2299 37.0761 31.8761 35.7377 27.3164C34.405 22.7758 30.9521 19.3049 25.9655 19.9279C23.3485 20.2549 20.9809 21.0246 18.8352 22.1366Z" fill="#197AFF"/>
<path fill-rule="evenodd" clip-rule="evenodd" d="M74.5296 44.4951C74.8543 44.4932 75.1192 44.7548 75.1211 45.0795C75.1213 45.1134 75.1218 45.162 75.1223 45.2234C75.1267 45.6927 75.1379 46.9119 75.1007 48.0637C75.0798 48.7118 75.0431 49.359 74.9777 49.8458C74.9459 50.083 74.9028 50.3181 74.8378 50.5033C74.8072 50.5906 74.7548 50.7176 74.6609 50.8294C74.5597 50.95 74.3372 51.1273 74.0201 51.0693C73.5689 50.9868 73.2015 50.6842 72.9292 50.4065C72.6454 50.117 72.3788 49.7622 72.1495 49.4552L72.1308 49.4302C71.8962 49.116 71.7058 48.8611 71.5341 48.6853C71.4659 48.6154 71.4168 48.5753 71.3858 48.5541C71.1013 48.5639 70.8442 48.3656 70.7888 48.0774C70.7274 47.7585 70.9362 47.4503 71.2551 47.3889C71.526 47.3369 71.7631 47.417 71.9354 47.5127C72.1048 47.6067 72.2524 47.7376 72.3755 47.8638C72.6036 48.0974 72.837 48.4101 73.0489 48.6942C73.0633 48.7135 73.0775 48.7326 73.0917 48.7515C73.3287 49.0689 73.5494 49.3594 73.7689 49.5832C73.7862 49.6009 73.8031 49.6176 73.8195 49.6335C73.8723 49.2126 73.9056 48.6384 73.9254 48.0258C73.9616 46.9017 73.9508 45.7109 73.9465 45.2365C73.9459 45.1731 73.9454 45.1226 73.9452 45.0866C73.9432 44.7619 74.2049 44.4971 74.5296 44.4951ZM73.7211 50.1319C73.7211 50.1318 73.7216 50.1305 73.7228 50.1282C73.7217 50.1308 73.7211 50.132 73.7211 50.1319Z" fill="#197AFF"/>
</svg>
