<svg width="29" height="12" viewBox="0 0 29 12" fill="none" xmlns="http://www.w3.org/2000/svg">
<path d="M13.8843 5.88369V9.14164H12.8207V1.0851H15.6281C15.9648 1.07933 16.2993 1.13881 16.6123 1.26012C16.9252 1.38142 17.2105 1.56214 17.4515 1.79181C17.6882 2.00986 17.875 2.27432 17.9997 2.56784C18.1244 2.86137 18.1842 3.17733 18.1751 3.49499C18.1871 3.81407 18.1287 4.13194 18.0038 4.42703C17.879 4.72212 17.6906 4.98753 17.4515 5.20524C17.21 5.43428 16.9247 5.61458 16.6118 5.73585C16.2989 5.85711 15.9647 5.91695 15.6281 5.91196L13.8843 5.88369ZM13.8843 2.08157V4.90842H15.6571C15.9373 4.90914 16.2117 4.83038 16.447 4.6817C16.6823 4.53301 16.8683 4.3208 16.9825 4.07084C17.0966 3.82088 17.134 3.54391 17.0901 3.27358C17.0462 3.00325 16.9229 2.75119 16.7352 2.548C16.6019 2.40768 16.4391 2.29714 16.258 2.22395C16.077 2.15077 15.8818 2.11666 15.686 2.12397L13.8843 2.08157ZM20.6496 3.43846C21.3275 3.40167 21.9936 3.62194 22.5092 4.0533C22.739 4.26994 22.9186 4.53216 23.0359 4.82229C23.1532 5.11242 23.2056 5.42374 23.1893 5.73528V9.1275H22.1764V8.38545H22.1257C21.9433 8.67836 21.6859 8.91976 21.3788 9.08583C21.0718 9.2519 20.7257 9.3369 20.3747 9.33245C19.8042 9.35031 19.2482 9.15579 18.819 8.78828C18.6171 8.62387 18.4556 8.41717 18.3467 8.18349C18.2377 7.94982 18.184 7.69517 18.1895 7.43846C18.1789 7.17716 18.2332 6.91722 18.3479 6.68091C18.4625 6.4446 18.6341 6.23895 18.848 6.08157C19.3627 5.72043 19.9878 5.541 20.6207 5.57273C21.1605 5.55292 21.6964 5.66978 22.1764 5.91196V5.67167C22.1768 5.49722 22.1374 5.32487 22.0611 5.16716C21.9847 5.00945 21.8733 4.87036 21.735 4.76001C21.4547 4.51425 21.0914 4.37833 20.7148 4.37839C20.4384 4.36882 20.1641 4.42879 19.9183 4.55255C19.6725 4.6763 19.4634 4.85969 19.311 5.0851L18.3776 4.51266C18.6301 4.15824 18.9718 3.87325 19.3697 3.68512C19.7676 3.49698 20.2084 3.41204 20.6496 3.43846ZM19.2821 7.44552C19.2769 7.58201 19.3058 7.71769 19.3663 7.84082C19.4268 7.96396 19.5171 8.07084 19.6294 8.15224C19.8653 8.33039 20.1561 8.42507 20.4543 8.42079C20.9013 8.4194 21.3299 8.24687 21.6482 7.94022C21.8134 7.79768 21.9459 7.62261 22.0369 7.42651C22.1279 7.23042 22.1755 7.01773 22.1764 6.80241C21.7743 6.52323 21.2869 6.38614 20.7944 6.41372C20.4112 6.40181 20.034 6.50814 19.7162 6.71761C19.5852 6.80014 19.477 6.91297 19.4013 7.04611C19.3255 7.17925 19.2846 7.32858 19.2821 7.48086V7.44552ZM28.9996 3.61514L25.4686 11.5586H24.3688L25.6856 8.78121L23.3558 3.61514H24.5062L26.1921 7.5798L27.8274 3.61514H28.9996Z" fill="#5F6368"/>
<path d="M9.59809 5.17675C9.59706 4.86187 9.57045 4.54758 9.5185 4.23682H5.04688V6.01774H7.60829C7.55551 6.30341 7.44438 6.57578 7.28154 6.81861C7.11869 7.06144 6.90746 7.26976 6.66042 7.43116V8.59017H8.20161C8.67428 8.15353 9.04744 7.62452 9.29678 7.0376C9.54613 6.45068 9.66605 5.81903 9.64874 5.18381L9.59809 5.17675Z" fill="#4285F4"/>
<path d="M5.04956 9.69994C6.20884 9.73666 7.33825 9.33691 8.20431 8.58334L6.67758 7.42432C6.30953 7.64837 5.89464 7.78876 5.46356 7.83513C5.03249 7.8815 4.59625 7.83266 4.1871 7.69221C3.77795 7.55177 3.40635 7.32331 3.09975 7.02373C2.79316 6.72415 2.55941 6.36111 2.41579 5.96143H0.816711V7.14871C1.21028 7.91579 1.81469 8.56073 2.56227 9.01132C3.30986 9.4619 4.1711 9.70034 5.04956 9.69994Z" fill="#34A853"/>
<path d="M2.41467 5.96136C2.21981 5.38539 2.21981 4.76348 2.41467 4.18751V2.99316H0.815592C0.483471 3.63774 0.310486 4.34931 0.310486 5.0709C0.310486 5.7925 0.483471 6.50407 0.815592 7.14864L2.41467 5.96136Z" fill="#FBBC04"/>
<path d="M5.04749 2.27926C5.38306 2.27364 5.71642 2.33323 6.0282 2.45455C6.33998 2.57587 6.62396 2.75651 6.86364 2.98597L8.20223 1.65029C7.34387 0.864971 6.2091 0.432262 5.03302 0.441805C4.15491 0.443018 3.29434 0.682125 2.54706 1.13253C1.79977 1.58294 1.19506 2.22699 0.800171 2.99304L2.41372 4.18739C2.59639 3.64212 2.94789 3.16569 3.41967 2.82389C3.89144 2.4821 4.46023 2.29179 5.04749 2.27926Z" fill="#EA4335"/>
</svg>
