<svg width="27" height="16" viewBox="0 0 27 16" fill="none" xmlns="http://www.w3.org/2000/svg">
<path d="M13.2145 13.5585C14.3609 12.5433 15.1664 11.2133 15.5254 9.74315C15.8844 8.27295 15.7801 6.73111 15.2262 5.31982C14.6723 3.90852 13.6947 2.69366 12.4215 1.83454C11.1484 0.975416 9.6391 0.51215 8.09165 0.505487C7.06605 0.474694 6.04457 0.6454 5.0878 1.00748C4.13103 1.36956 3.25847 1.91563 2.52186 2.61331C1.78526 3.31099 1.19961 4.14606 0.799678 5.06898C0.399744 5.9919 0.193665 6.98387 0.193665 7.98605C0.193665 8.98823 0.399744 9.98021 0.799678 10.9031C1.19961 11.8261 1.78526 12.6611 2.52186 13.3588C3.25847 14.0565 4.13103 14.6025 5.0878 14.9646C6.04457 15.3267 7.06605 15.4974 8.09165 15.4666C9.98572 15.4909 11.8179 14.8084 13.2145 13.5585Z" fill="#07A9E2"/>
<path d="M0.413696 7.99652C0.419446 9.98021 1.23127 11.8805 2.67078 13.2799C4.11029 14.6792 6.05973 15.4632 8.09071 15.4594C9.99053 15.4784 11.8249 14.7825 13.2135 13.516C14.3544 12.5013 15.155 11.1739 15.5107 9.70747C15.8664 8.24104 15.7605 6.70389 15.2069 5.2972C14.6533 3.89051 13.6779 2.67981 12.4081 1.82357C11.1384 0.967321 9.63365 0.505411 8.09071 0.498291" fill="#009DDD"/>
<path d="M13.214 2.44175C11.8122 1.19579 9.98644 0.50313 8.09114 0.498291H7.72936C6.50668 1.34465 5.50873 2.4641 4.81865 3.76339C4.12856 5.06269 3.76631 6.50422 3.76206 7.96793C3.75781 9.43165 4.11169 10.8752 4.79422 12.1783C5.47676 13.4814 6.46819 14.6063 7.68594 15.4594H8.05496C9.95243 15.4773 11.7842 14.7814 13.1706 13.516C13.9621 12.8169 14.5956 11.9642 15.0305 11.0123C15.4653 10.0605 15.6921 9.03052 15.6962 7.98822C15.7003 6.94592 15.4816 5.91426 15.0542 4.95921C14.6268 4.00415 14 3.14673 13.214 2.44175Z" fill="#0284CC"/>
<path d="M18.3743 0.498401C16.4654 0.48822 14.6228 1.18232 13.2153 2.44186C12.9373 2.68639 12.6785 2.95097 12.4411 3.23338H13.9895C14.2004 3.48104 14.3892 3.74584 14.5539 4.0249H11.8188C11.6555 4.28347 11.5057 4.55002 11.3702 4.82349H14.988C15.1151 5.07968 15.2239 5.34415 15.3136 5.61501H11.0953C11.0157 5.89063 10.9288 6.13091 10.8492 6.40653H15.5669C15.6828 6.92875 15.7362 7.46237 15.7261 7.99663C15.7359 8.80764 15.5987 9.61394 15.3209 10.3783H11.0953C11.185 10.6491 11.2938 10.9136 11.4209 11.1698H15.0387C14.9125 11.4479 14.7624 11.715 14.5901 11.9684H11.8695C12.0342 12.2474 12.223 12.5122 12.4339 12.7599H13.9895C13.7524 13.0447 13.4936 13.3117 13.2153 13.5585C14.6318 14.8039 16.4685 15.4958 18.3743 15.5019C20.4104 15.5019 22.3631 14.7119 23.8028 13.3058C25.2425 11.8996 26.0513 9.99236 26.0513 8.0037C26.0513 6.01505 25.2425 4.10784 23.8028 2.70165C22.3631 1.29546 20.4104 0.505469 18.3743 0.505469V0.498401Z" fill="#FF2957"/>
<path d="M18.3743 0.498401C16.4654 0.48822 14.6228 1.18232 13.2153 2.44186C12.9373 2.68639 12.6785 2.95097 12.4411 3.23338H13.9895C14.2004 3.48104 14.3892 3.74584 14.5539 4.0249H11.8188C11.6555 4.28347 11.5057 4.55002 11.3702 4.82349H14.988C15.1151 5.07968 15.2239 5.34415 15.3136 5.61501H11.0953C11.0157 5.89063 10.9288 6.13091 10.8492 6.40653H15.5669C15.6828 6.92875 15.7362 7.46237 15.7261 7.99664C15.7359 8.80764 15.5987 9.61394 15.3209 10.3783H11.0953C11.185 10.6491 11.2938 10.9136 11.4209 11.1698H15.0387C14.9125 11.4479 14.7624 11.715 14.5901 11.9684H11.8695C12.0342 12.2474 12.223 12.5122 12.4338 12.7599H13.9895C13.7524 13.0447 13.4936 13.3117 13.2153 13.5585C14.6318 14.8039 16.4685 15.4958 18.3743 15.5019C19.3776 15.5038 20.3715 15.3123 21.2989 14.9383C22.2263 14.5644 23.0691 14.0154 23.7789 13.3228C24.4887 12.6301 25.0516 11.8075 25.4353 10.9021C25.819 9.9966 26.0161 9.02608 26.0151 8.0461" fill="#ED1C2E"/>
<path d="M13.215 13.5585C14.0076 12.8551 14.641 11.9975 15.0744 11.0409C15.5078 10.0843 15.7317 9.04981 15.7317 8.00375C15.7317 6.95768 15.5078 5.92316 15.0744 4.96657C14.641 4.00998 14.0076 3.15244 13.215 2.44897V13.5585Z" fill="#0466B5"/>
<path d="M23.3945 9.62183C23.4045 9.56606 23.4342 9.51549 23.4785 9.47904C23.5229 9.44259 23.579 9.42261 23.6369 9.42261C23.6949 9.42261 23.751 9.44259 23.7953 9.47904C23.8397 9.51549 23.8694 9.56606 23.8793 9.62183C23.8855 9.65635 23.8838 9.69175 23.8744 9.72557C23.8651 9.75939 23.8483 9.7908 23.8252 9.8176C23.8021 9.8444 23.7733 9.86595 23.7408 9.88073C23.7082 9.89551 23.6728 9.90317 23.6369 9.90317C23.6011 9.90317 23.5656 9.89551 23.5331 9.88073C23.5006 9.86595 23.4718 9.8444 23.4487 9.8176C23.4256 9.7908 23.4088 9.75939 23.3994 9.72557C23.3901 9.69175 23.3884 9.65635 23.3945 9.62183ZM23.6406 9.81971C23.7563 9.81971 23.7997 9.74198 23.7997 9.62183C23.802 9.60087 23.7995 9.57967 23.7923 9.5598C23.7851 9.53992 23.7734 9.52187 23.7582 9.50696C23.7429 9.49206 23.7244 9.48067 23.7041 9.47365C23.6837 9.46662 23.662 9.46413 23.6406 9.46636C23.6168 9.4634 23.5926 9.46509 23.5695 9.47133C23.5464 9.47757 23.5248 9.48823 23.506 9.50269C23.4871 9.51716 23.4714 9.53514 23.4597 9.5556C23.448 9.57605 23.4406 9.59857 23.438 9.62183C23.4473 9.67094 23.4717 9.71613 23.5079 9.75145C23.544 9.78677 23.5903 9.81057 23.6406 9.81971ZM23.6406 9.69957H23.5971V9.50169H23.7202L23.7563 9.54409C23.7563 9.5865 23.7563 9.5865 23.7202 9.5865L23.7563 9.66424H23.7202L23.6767 9.5865H23.6406V9.69957ZM23.6406 9.5865H23.6767V9.54409H23.6406V9.5865Z" fill="white"/>
<path d="M13.2153 2.44174C12.9373 2.68626 12.6785 2.95085 12.4411 3.23326H13.9895C14.2004 3.48091 14.3892 3.74572 14.5539 4.02478H11.8188C11.6555 4.28335 11.5057 4.54989 11.3702 4.82336H14.988C15.1151 5.07955 15.2239 5.34402 15.3136 5.61488H11.0953C11.0157 5.8905 10.9288 6.13078 10.8492 6.4064H15.5669C15.6828 6.92863 15.7362 7.46224 15.7261 7.99651C15.7359 8.80751 15.5987 9.61381 15.3209 10.3781H11.0953C11.185 10.649 11.2938 10.9135 11.4209 11.1697H15.0387C14.9125 11.4477 14.7624 11.7149 14.5901 11.9682H11.8695C12.0342 12.2473 12.223 12.5121 12.4339 12.7598H13.9895C13.7524 13.0446 13.4936 13.3116 13.2153 13.5583C14.6318 14.8037 16.4685 15.4956 18.3743 15.5018H18.7433C19.955 14.6509 20.9419 13.5307 21.6227 12.2337C22.3035 10.9366 22.6586 9.5 22.6586 8.04244C22.6586 6.58489 22.3035 5.14826 21.6227 3.85121C20.9419 2.55417 19.955 1.43395 18.7433 0.58308H18.3743C16.4725 0.523004 14.6216 1.18981 13.2153 2.44174Z" fill="#D1094B"/>
<path d="M7.11505 9.86265H6.14547L6.70985 6.96513L5.41467 9.86265H4.56087L4.39445 6.96513L3.83007 9.86265H2.97626L3.70705 6.05347H5.21207L5.29166 8.43509L6.34807 6.05347H7.88927L7.11505 9.86265Z" fill="white"/>
<path d="M6.18134 8.19487L6.75295 6.96519L6.30434 9.26908C6.3402 9.48553 6.3959 9.6984 6.47076 9.90512H7.12196L7.84552 6.08887H6.3984C6.2211 6.72494 6.12629 7.38024 6.11621 8.0394C6.18133 8.07473 6.18134 8.11714 6.18134 8.19487Z" fill="#DCE5E5"/>
<path d="M17.7652 9.81983C17.533 9.90094 17.2881 9.9416 17.0416 9.93997C16.5568 9.93997 16.318 9.69969 16.318 9.23325C16.3126 9.13712 16.3274 9.04093 16.3615 8.95057L16.4049 8.63255V8.39933L16.8824 6.08838H17.8158L17.6928 6.79509H18.1848L18.0618 7.50181H17.606L17.3672 8.76682C17.36 8.80903 17.3453 8.84969 17.3238 8.88697C17.3238 9.04951 17.4468 9.12725 17.6494 9.12725C17.852 9.12725 17.852 9.12725 17.8954 9.08484L17.7724 9.79156L17.7652 9.81983Z" fill="#DCE5E5"/>
<path d="M20.565 6.80917C20.4854 6.76677 20.4854 6.76677 20.4492 6.76677C20.413 6.76677 20.3624 6.76677 20.3624 6.72437H20.2466C19.921 6.72437 19.7184 6.84451 19.429 7.24027L19.5086 6.76677H18.6548L18.0904 9.86218H19.0527C19.3783 7.95405 19.5375 7.63603 19.9861 7.63603H20.1091L20.2322 7.67843L20.5505 6.80917H20.565Z" fill="#DCE5E5"/>
<path d="M13.9883 7.75649C13.9866 7.9594 14.0582 8.15639 14.1906 8.31281C14.3229 8.46922 14.5075 8.57503 14.7119 8.61161C15.1171 8.77416 15.1605 8.80949 15.1605 8.97204C15.1605 9.13458 14.9941 9.24765 14.5889 9.24765C14.3 9.24589 14.0127 9.20547 13.7351 9.12751L13.6121 9.83423H13.6555L13.8147 9.87663H14.0607C14.2349 9.90743 14.4118 9.92163 14.5889 9.91903C15.6019 9.91903 16.0939 9.60101 16.0939 8.88723C16.0939 8.44907 15.8913 8.18052 15.3703 8.0109C14.8494 7.84129 14.9217 7.81302 14.9217 7.69288C14.9217 7.57274 15.0881 7.4526 15.4137 7.4526C15.6437 7.44789 15.8736 7.46208 16.1011 7.495L16.2241 6.78829C15.941 6.75304 15.6556 6.73886 15.3703 6.74589C14.3139 6.74589 13.9232 7.22645 13.9232 7.77769L13.9883 7.75649Z" fill="#DCE5E5"/>
<path d="M10.2044 9.86255H9.43741V9.54452C9.30201 9.6701 9.14147 9.76695 8.96589 9.82898C8.79031 9.89101 8.60349 9.91688 8.41718 9.90495C8.30341 9.91108 8.18958 9.89371 8.08315 9.85397C7.97672 9.81423 7.88006 9.75301 7.79949 9.67432C7.71892 9.59563 7.65625 9.50122 7.61556 9.39727C7.57488 9.29331 7.55709 9.18215 7.56336 9.07103C7.56336 8.31484 8.17839 7.87668 9.2348 7.87668H9.64723C9.65885 7.81121 9.65885 7.74427 9.64723 7.6788C9.64723 7.48092 9.48805 7.40318 9.03944 7.40318C8.77937 7.40396 8.52002 7.43 8.26522 7.48092L8.14945 7.52332H8.06263L8.18563 6.81661C8.55526 6.71442 8.93748 6.66211 9.32163 6.66113C10.1393 6.66113 10.5879 6.97915 10.5879 7.57279C10.5899 7.78775 10.5607 8.00191 10.501 8.20884L10.3274 9.31838L10.2912 9.51626L10.2478 9.67173V9.79187L10.2044 9.83428V9.86255ZM9.48082 8.44912H9.27822C8.75002 8.44912 8.46059 8.61166 8.46059 8.92968C8.45735 8.97226 8.46355 9.01501 8.47876 9.05503C8.49398 9.09506 8.51785 9.1314 8.54876 9.16159C8.57967 9.19177 8.61688 9.21509 8.65785 9.22996C8.69883 9.24482 8.7426 9.25087 8.78619 9.2477C8.88967 9.24856 8.99214 9.22773 9.08667 9.18662C9.18121 9.1455 9.26562 9.08506 9.3342 9.00937C9.40278 8.93368 9.45393 8.8445 9.48422 8.74785C9.5145 8.6512 9.52321 8.54933 9.50976 8.44912H9.48082Z" fill="#DCE5E5"/>
<path d="M13.3382 9.78432C13.0188 9.86252 12.6908 9.90286 12.3614 9.90446C11.305 9.90446 10.7334 9.4239 10.7334 8.49103C10.7103 8.26204 10.7362 8.03085 10.8094 7.81215C10.8827 7.59344 11.0016 7.39198 11.1588 7.22055C11.3159 7.04912 11.5078 6.91145 11.7223 6.81628C11.9368 6.72112 12.1693 6.67052 12.4048 6.66771C12.5645 6.64842 12.7265 6.66289 12.8799 6.71014C13.0333 6.75739 13.1744 6.83631 13.2939 6.94155C13.4133 7.04679 13.5081 7.17589 13.572 7.32008C13.6358 7.46427 13.6671 7.62019 13.6638 7.77725C13.6559 8.03339 13.6145 8.2875 13.5408 8.53344H11.6306V8.64651C11.6306 9.00694 11.9128 9.20482 12.441 9.20482C12.7783 9.21852 13.1139 9.15054 13.4178 9.00694L13.3382 9.76312V9.78432ZM12.8462 7.95393V7.79846C12.8488 7.74272 12.8389 7.6871 12.8171 7.63552C12.7953 7.58394 12.7622 7.53766 12.7201 7.49992C12.678 7.46219 12.628 7.43393 12.5735 7.41713C12.519 7.40033 12.4615 7.3954 12.4048 7.4027C12.2524 7.40966 12.1074 7.46867 11.995 7.56941C11.8826 7.67015 11.81 7.80624 11.7898 7.95393H12.8462Z" fill="#DCE5E5"/>
<path d="M23.5318 8.47016C23.5093 8.68688 23.443 8.89709 23.3367 9.0886C23.2304 9.28011 23.0863 9.44912 22.9126 9.58584C22.739 9.72257 22.5393 9.82428 22.3252 9.88509C22.111 9.94591 21.8866 9.96461 21.665 9.94013C21.4671 9.96129 21.2668 9.93975 21.0783 9.87702C20.8898 9.8143 20.7177 9.71192 20.5741 9.57711C20.4306 9.4423 20.3191 9.27836 20.2476 9.09686C20.176 8.91536 20.1461 8.72072 20.16 8.5267C20.1451 8.28287 20.1835 8.03873 20.2725 7.81047C20.3616 7.5822 20.4992 7.37502 20.6764 7.20263C20.8536 7.03024 21.0662 6.89659 21.3003 6.81052C21.5343 6.72445 21.7844 6.68793 22.034 6.70338C22.2306 6.68699 22.4285 6.7119 22.6144 6.77644C22.8004 6.84099 22.97 6.94366 23.1119 7.07757C23.2537 7.21147 23.3646 7.3735 23.4371 7.55276C23.5095 7.73201 23.5418 7.92434 23.5318 8.11681V8.51257V8.47016ZM22.5188 8.0744C22.5188 7.75638 22.3958 7.48076 21.9906 7.48076C21.5854 7.48076 21.2164 8.03907 21.2164 8.55497C21.2164 8.95073 21.419 9.22635 21.7446 9.22635C21.929 9.1859 22.0967 9.09213 22.2258 8.95724C22.3548 8.82236 22.4393 8.65262 22.4682 8.47016C22.5017 8.3409 22.5163 8.20766 22.5116 8.0744H22.5188Z" fill="white"/>
<path d="M20.2043 8.87274C20.252 8.58284 20.2786 8.28999 20.2839 7.99641V7.90454C20.2369 8.11364 20.2103 8.3266 20.2043 8.54058C20.1805 8.59288 20.1683 8.64946 20.1683 8.70666C20.1683 8.76387 20.1805 8.82044 20.2043 8.87274Z" fill="white"/>
</svg>
