<svg width="17" height="17" viewBox="0 0 17 17" fill="none" xmlns="http://www.w3.org/2000/svg">
<path d="M8.49999 0.583496C4.13791 0.583496 0.583328 4.13808 0.583328 8.50016C0.583328 12.8622 4.13791 16.4168 8.49999 16.4168C12.8621 16.4168 16.4167 12.8622 16.4167 8.50016C16.4167 4.13808 12.8621 0.583496 8.49999 0.583496ZM12.2842 6.67933L7.79541 11.1681C7.68458 11.2789 7.53416 11.3422 7.37583 11.3422C7.21749 11.3422 7.06708 11.2789 6.95624 11.1681L4.71583 8.92766C4.48624 8.69808 4.48624 8.31808 4.71583 8.0885C4.94541 7.85891 5.32541 7.85891 5.55499 8.0885L7.37583 9.90933L11.445 5.84016C11.6746 5.61058 12.0546 5.61058 12.2842 5.84016C12.5137 6.06975 12.5137 6.44183 12.2842 6.67933Z" fill="#197AFF"/>
</svg>
