<svg width="33" height="14" viewBox="0 0 33 14" fill="none" xmlns="http://www.w3.org/2000/svg">
<path d="M6.68146 2.36009C6.49839 2.58489 6.26482 2.76556 5.99883 2.8881C5.73284 3.01065 5.44156 3.07179 5.1475 3.0668C5.12948 2.78609 5.16881 2.50469 5.26322 2.23898C5.35763 1.97326 5.50523 1.72855 5.69741 1.5191C6.07548 1.0823 6.61254 0.806095 7.19519 0.748779C7.23643 1.33326 7.04456 1.91066 6.65975 2.36009H6.68146ZM7.19519 3.17987C6.34862 3.1304 5.62506 3.64631 5.2271 3.64631C4.82914 3.64631 4.22134 3.20108 3.57737 3.21521C3.13359 3.21685 2.69833 3.33434 2.31667 3.55552C1.935 3.7767 1.62083 4.09352 1.40668 4.47316C0.494988 6.00673 1.1679 8.27528 2.05065 9.5191C2.48479 10.1339 2.99852 10.8124 3.67867 10.7912C4.35882 10.77 4.60483 10.3884 5.37905 10.3884C6.15326 10.3884 6.39204 10.7982 7.07219 10.7841C7.75234 10.77 8.22265 10.1693 8.64955 9.54737C8.95788 9.11197 9.20149 8.6361 9.37312 8.13394C8.96607 7.96011 8.61948 7.67456 8.37543 7.31199C8.13138 6.94943 8.00038 6.52544 7.99835 6.09154C8.00411 5.70748 8.10932 5.3311 8.30415 4.99745C8.49899 4.66381 8.77712 4.38377 9.11264 4.18341C8.89599 3.88099 8.60955 3.63259 8.27647 3.45826C7.94338 3.28393 7.57298 3.18857 7.19519 3.17987ZM12.0792 1.45549V10.7134H13.5264V7.5615H15.5668C15.9897 7.58991 16.4139 7.53056 16.8116 7.38734C17.2094 7.24413 17.5715 7.0203 17.8743 6.73057C18.1771 6.44085 18.4136 6.09179 18.5684 5.70637C18.7232 5.32095 18.7926 4.90789 18.7722 4.49436C18.7919 4.08959 18.7247 3.68527 18.5748 3.30739C18.425 2.92952 18.1958 2.58645 17.9021 2.30024C17.6084 2.01403 17.2566 1.79102 16.8694 1.64554C16.4821 1.50005 16.068 1.43532 15.6537 1.45549H12.0792ZM13.5264 2.67104H15.2268C15.4872 2.63565 15.7525 2.65755 16.0032 2.73512C16.2539 2.8127 16.4837 2.94399 16.6758 3.11942C16.8679 3.29485 17.0174 3.50997 17.1135 3.74907C17.2095 3.98818 17.2497 4.24522 17.231 4.50143C17.2508 4.75913 17.2113 5.01789 17.1154 5.25872C17.0194 5.49956 16.8695 5.71637 16.6766 5.89326C16.4837 6.07014 16.2527 6.2026 16.0006 6.28094C15.7485 6.35927 15.4816 6.38148 15.2195 6.34595H13.5626L13.5264 2.67104ZM21.4566 10.7841C21.8934 10.7947 22.3251 10.6908 22.7068 10.4833C23.0886 10.2757 23.4064 9.97207 23.6273 9.6039V10.7134H24.9876V6.10567C24.9876 4.76998 23.895 3.90779 22.2091 3.90779C20.6752 3.90779 19.4958 4.78412 19.4958 5.97846H20.8199C20.8965 5.68453 21.0793 5.42754 21.3346 5.25482C21.5899 5.08211 21.9005 5.00529 22.2091 5.03853C23.1136 5.03853 23.6129 5.44843 23.6129 6.19754V6.71344L21.7678 6.85479C20.0529 6.95373 19.134 7.63924 19.134 8.82652C19.134 10.0138 20.0891 10.7841 21.4566 10.7841ZM21.8474 9.68164C21.0659 9.68164 20.5667 9.31415 20.5667 8.74878C20.5667 8.18341 21.0442 7.82298 21.9631 7.77351L23.5984 7.67457V8.19754C23.5886 8.40914 23.5348 8.61658 23.4404 8.80724C23.3459 8.99791 23.2128 9.16782 23.049 9.30664C22.8852 9.44547 22.6942 9.5503 22.4876 9.61477C22.2811 9.67923 22.0632 9.70198 21.8474 9.68164ZM26.8327 13.2152C28.2798 13.2152 28.9455 12.6852 29.5316 11.0597L32.1147 4.02793H30.6242L28.9021 9.46963L27.1294 4.02793H25.5882L28.0845 10.7629L27.947 11.1728C27.8977 11.4473 27.7463 11.6943 27.522 11.8664C27.2976 12.0386 27.0161 12.1238 26.7314 12.1057C26.5868 12.1132 26.4419 12.1132 26.2973 12.1057V13.2152C26.4817 13.2417 26.668 13.2535 26.8544 13.2505L26.8327 13.2152Z" fill="black"/>
</svg>
