<svg width="47" height="12" viewBox="0 0 47 12" fill="none" xmlns="http://www.w3.org/2000/svg">
<path d="M36.1644 3.25098H33.6753C33.5946 3.2649 33.519 3.29887 33.4556 3.34962C33.3923 3.40036 33.3433 3.46617 33.3136 3.54073L32.2861 9.82341C32.2826 9.853 32.2861 9.88298 32.2961 9.9111C32.3062 9.93922 32.3226 9.96476 32.3441 9.98582C32.3657 10.0069 32.3918 10.0229 32.4206 10.0327C32.4494 10.0425 32.4801 10.0459 32.5104 10.0425H33.8273C33.8573 10.0461 33.8878 10.0429 33.9164 10.0331C33.9449 10.0233 33.9707 10.0071 33.9918 9.98584C34.0128 9.96459 34.0285 9.93886 34.0377 9.91068C34.0468 9.88249 34.0491 9.85262 34.0444 9.82341L34.3338 8.0425C34.3447 7.95683 34.3893 7.87868 34.4582 7.82459C34.5271 7.77051 34.6148 7.74474 34.7028 7.75274H35.506C37.1943 7.75274 38.1446 6.96829 38.3568 5.39939C38.4308 5.13213 38.4433 4.85218 38.3932 4.57967C38.3432 4.30716 38.2319 4.04888 38.0674 3.82341C37.5187 3.42573 36.8471 3.2237 36.1644 3.25098ZM36.4611 5.6114C36.3091 6.46652 35.6507 6.46652 35.0139 6.46652H34.5798L34.8692 4.82695C34.8692 4.75628 34.9416 4.67854 35.0863 4.67854H35.2382C35.6724 4.67854 36.1138 4.67854 36.3308 4.96829C36.4828 5.03896 36.4828 5.25098 36.4828 5.6114" fill="#139AD6"/>
<path d="M18.2622 3.25101H15.7732C15.6914 3.26447 15.6146 3.29817 15.55 3.3489C15.4854 3.39962 15.4351 3.46568 15.4041 3.54077L14.3839 9.82345C14.3792 9.85265 14.3815 9.88252 14.3906 9.91071C14.3998 9.9389 14.4155 9.96463 14.4365 9.98587C14.4576 10.0071 14.4834 10.0233 14.5119 10.0331C14.5405 10.043 14.5709 10.0462 14.601 10.0425H15.7732C15.9179 10.0425 16.0626 9.89412 16.1349 9.75278L16.4316 8.04253C16.4407 7.95746 16.4839 7.87934 16.5516 7.8251C16.6193 7.77086 16.7062 7.74487 16.7934 7.75278H17.6038C19.2824 7.75278 20.2327 6.96833 20.4546 5.39942C20.5276 5.13166 20.5389 4.85141 20.4876 4.57888C20.4363 4.30636 20.3237 4.04834 20.158 3.82345C19.6185 3.41361 18.9444 3.21008 18.2622 3.25101ZM18.5516 5.61144C18.4069 6.46656 17.7485 6.46656 17.1045 6.46656H16.7355L17.0322 4.82698C17.0322 4.75631 17.1045 4.67858 17.2492 4.67858H17.3939C17.8353 4.67858 18.2767 4.67857 18.4938 4.96833C18.5529 5.06399 18.5899 5.17105 18.6024 5.2821C18.6149 5.39315 18.6025 5.50553 18.5661 5.61144" fill="#263B80"/>
<path d="M25.7825 5.54088H24.6103C24.5379 5.54088 24.3932 5.61155 24.3932 5.68222L24.3208 6.04265L24.2413 5.89424C24.0618 5.71619 23.8441 5.57941 23.6038 5.49384C23.3635 5.40827 23.1066 5.37605 22.852 5.39954C22.189 5.4164 21.5535 5.66198 21.0582 6.09274C20.5628 6.5235 20.2396 7.11163 20.1459 7.7529C20.0772 8.06417 20.0813 8.38654 20.1577 8.69607C20.2341 9.0056 20.3809 9.29435 20.5872 9.54088C20.781 9.74462 21.0201 9.90219 21.286 10.0014C21.552 10.1007 21.8377 10.139 22.1212 10.1133C22.4318 10.1206 22.7408 10.0675 23.0303 9.95708C23.3197 9.84668 23.5837 9.68118 23.8071 9.47021L23.7347 9.82357C23.73 9.85277 23.7323 9.88264 23.7415 9.91083C23.7506 9.93901 23.7663 9.96474 23.7873 9.98599C23.8084 10.0072 23.8342 10.0234 23.8628 10.0332C23.8913 10.0431 23.9218 10.0463 23.9518 10.0426H25.0516C25.1964 10.0426 25.3411 9.89424 25.4134 9.7529L26.0719 5.7529C25.9995 5.68222 25.8548 5.54088 25.7825 5.54088ZM24.0965 7.82357C24.0338 8.14072 23.8617 8.42731 23.6089 8.63562C23.3561 8.84393 23.0379 8.96139 22.7073 8.96844C22.4128 8.97548 22.1263 8.87464 21.9041 8.68576C21.7475 8.42508 21.6721 8.12546 21.6871 7.82357C21.7274 7.50932 21.8831 7.22005 22.1253 7.00948C22.3675 6.79891 22.6797 6.68137 23.0039 6.67869C23.2966 6.68832 23.5783 6.78994 23.8071 6.96844C24.0089 7.2085 24.1121 7.51331 24.0965 7.82357Z" fill="#263B80"/>
<path d="M43.6244 5.54095H42.4522C42.3799 5.54095 42.2352 5.61163 42.2352 5.6823L42.1628 6.04272L42.0904 5.89431C41.9064 5.72242 41.6859 5.59217 41.4446 5.51278C41.2032 5.4334 40.947 5.40683 40.694 5.43495C40.031 5.45181 39.3955 5.69738 38.9002 6.12815C38.4048 6.55891 38.0816 7.14704 37.9878 7.7883C37.9182 8.09905 37.9211 8.42111 37.9963 8.73062C38.0714 9.04013 38.2169 9.32916 38.422 9.57629C38.6172 9.78017 38.8575 9.93774 39.1246 10.037C39.3918 10.1362 39.6786 10.1744 39.9632 10.1487C40.2726 10.1555 40.5804 10.1021 40.8686 9.99166C41.1567 9.88127 41.4196 9.71605 41.6418 9.50562L41.5695 9.85898C41.5648 9.88818 41.5671 9.91805 41.5762 9.94624C41.5853 9.97442 41.601 10.0002 41.6221 10.0214C41.6431 10.0426 41.6689 10.0588 41.6975 10.0686C41.726 10.0785 41.7565 10.0817 41.7866 10.0781H42.8647C42.9459 10.0634 43.0222 10.0292 43.0866 9.97862C43.151 9.92805 43.2015 9.86266 43.2337 9.7883L43.8921 5.7883C43.8126 5.71763 43.7402 5.57629 43.5955 5.57629L43.6244 5.54095ZM41.9168 7.85898C41.848 8.16502 41.6771 8.44008 41.4309 8.64092C41.1847 8.84176 40.8771 8.957 40.5565 8.96852C40.2599 8.97528 39.9712 8.87458 39.7461 8.68583C39.5895 8.42515 39.514 8.12554 39.529 7.82364C39.5693 7.50939 39.725 7.22012 39.9672 7.00955C40.2094 6.79899 40.5217 6.68144 40.8459 6.67876C41.1391 6.68581 41.4216 6.78773 41.6491 6.96852C41.7795 7.06643 41.8774 7.19993 41.9302 7.35214C41.983 7.50435 41.9884 7.66843 41.9457 7.82364" fill="#139AD6"/>
<path d="M32.1421 5.54099H30.8976C30.8416 5.54204 30.7866 5.55527 30.7366 5.57972C30.6865 5.60417 30.6426 5.63923 30.6082 5.68233L28.9946 8.11343L28.2711 5.82368C28.2451 5.75295 28.1949 5.69318 28.129 5.65453C28.063 5.61588 27.9854 5.60073 27.9093 5.61166H26.7299C26.5852 5.61166 26.5128 5.753 26.5128 5.89435L27.8297 9.67527L26.5852 11.3926C26.5128 11.5339 26.5852 11.7459 26.7299 11.7459H27.9021C27.958 11.7449 28.0131 11.7317 28.0631 11.7072C28.1132 11.6828 28.1571 11.6477 28.1915 11.6046L32.2145 5.95088C32.4388 5.73887 32.2869 5.52686 32.1421 5.52686" fill="#263B80"/>
<path d="M45.036 3.47019L44.0158 9.89422C44.0158 10.0426 44.0882 10.1133 44.2329 10.1133H45.2603C45.405 10.1133 45.5498 9.96489 45.6221 9.82355L46.6496 3.54086C46.6546 3.51099 46.6522 3.48038 46.6427 3.45157C46.6332 3.42276 46.6168 3.39657 46.5949 3.37517C46.573 3.35377 46.5462 3.33776 46.5167 3.32848C46.4872 3.3192 46.4559 3.3169 46.4253 3.32178H45.2603C45.1807 3.25111 45.1084 3.32178 45.036 3.47019Z" fill="#139AD6"/>
<path d="M8.9581 1.10976C8.44437 0.537324 7.51098 0.254639 6.17962 0.254639H2.51838C2.40076 0.271436 2.29031 0.320055 2.19952 0.394994C2.10872 0.469932 2.04122 0.568197 2.00465 0.678667L0.557517 10.0426C0.549423 10.1278 0.576023 10.2127 0.631556 10.2788C0.687089 10.3449 0.76708 10.3871 0.854181 10.396H3.11894L3.70503 6.89775V7.03909C3.73969 6.92688 3.80645 6.82669 3.89747 6.75031C3.98849 6.67393 4.09996 6.62456 4.21875 6.608H5.31134C7.43139 6.608 9.04493 5.75287 9.55866 3.39245V3.18043C9.62353 2.81443 9.60462 2.43894 9.50328 2.08093C9.40195 1.72291 9.22071 1.39125 8.97258 1.10976" fill="#263B80"/>
<path d="M9.4646 3.18018V3.39219C8.95811 5.82328 7.34456 6.60774 5.22451 6.60774H4.13194C4.01314 6.6243 3.90167 6.67367 3.81065 6.75005C3.71963 6.82643 3.65286 6.92663 3.6182 7.03883L2.89464 11.3993C2.89134 11.4372 2.89656 11.4754 2.90994 11.5111C2.92332 11.5469 2.94452 11.5794 2.97209 11.6063C2.99965 11.6332 3.03291 11.6539 3.06952 11.667C3.10614 11.6801 3.14523 11.6852 3.18407 11.6819H5.08704C5.19306 11.69 5.29817 11.6577 5.38041 11.5919C5.46265 11.526 5.51567 11.4317 5.52841 11.3286V11.2508L5.89019 9.03883V8.89749C5.9012 8.79309 5.95348 8.69702 6.03592 8.6297C6.11835 8.56239 6.22442 8.52915 6.33157 8.53707H6.621C8.45162 8.53707 9.91321 7.83035 10.2822 5.71021C10.3781 5.35147 10.3948 4.9769 10.3312 4.61137C10.2676 4.24584 10.1251 3.89771 9.91322 3.59007C9.86879 3.50371 9.8067 3.42716 9.73078 3.36517C9.65486 3.30318 9.56674 3.25705 9.47184 3.22965" fill="#139AD6"/>
<path d="M8.95865 2.96879C8.8863 2.96879 8.81394 2.89812 8.73435 2.89812C8.69507 2.90274 8.65523 2.8988 8.61769 2.88658C8.58016 2.87436 8.54587 2.85416 8.51728 2.82745C8.20547 2.76609 7.88714 2.74235 7.56941 2.75678H4.71133C4.67205 2.75216 4.63221 2.7561 4.59467 2.76832C4.55714 2.78054 4.52285 2.80074 4.49426 2.82745C4.4278 2.86056 4.37222 2.91124 4.33384 2.97372C4.29546 3.0362 4.27582 3.10796 4.27719 3.18081L3.6911 6.89812V7.03946C3.72576 6.92726 3.79253 6.82706 3.88355 6.75068C3.97457 6.67431 4.08604 6.62493 4.20484 6.60837H5.29742C7.41746 6.60837 9.03101 5.75324 9.54474 3.39282C9.54001 3.35446 9.54405 3.31554 9.55656 3.27888C9.56908 3.24222 9.58975 3.20873 9.6171 3.18081C9.46515 3.11014 9.39279 3.03946 9.24808 3.03946C9.10336 3.03946 9.03101 2.96879 8.95865 2.96879Z" fill="#232C65"/>
</svg>
