<svg width="26" height="16" viewBox="0 0 26 16" fill="none" xmlns="http://www.w3.org/2000/svg">
<path d="M15.9765 8.02861C15.9708 9.54674 15.5046 11.0292 14.6369 12.2888C13.7692 13.5483 12.5389 14.5285 11.1012 15.1056C9.66356 15.6827 8.08306 15.8308 6.55929 15.5312C5.03551 15.2317 3.63678 14.4978 2.53972 13.4223C1.44265 12.3469 0.696444 10.978 0.395305 9.48865C0.0941651 7.99927 0.251596 6.45613 0.847731 5.05408C1.44387 3.65203 2.45197 2.45393 3.74475 1.61107C5.03753 0.768206 6.55702 0.31837 8.11137 0.318359C9.14667 0.318353 10.1718 0.517986 11.1279 0.905808C12.0841 1.29363 12.9524 1.86201 13.6831 2.57834C14.4138 3.29468 14.9926 4.14487 15.3861 5.08016C15.7797 6.01545 15.9803 7.01742 15.9765 8.02861Z" fill="#E2574C"/>
<path d="M17.5528 0.318363C15.8583 0.316815 14.2096 0.855245 12.8568 1.85193C13.1299 2.06886 13.3862 2.30506 13.6238 2.55865H11.9886C11.7278 2.81231 11.486 3.08391 11.265 3.37137H14.1593C14.3822 3.61223 14.5854 3.86979 14.767 4.14168H10.7513C10.6043 4.38876 10.4715 4.64357 10.3533 4.90493H15.2229C15.3536 5.13217 15.4672 5.36836 15.563 5.61165H10.0639C9.9729 5.87748 9.90037 6.149 9.84681 6.42437H15.7945C15.8514 6.67642 15.8949 6.93118 15.9247 7.18762H9.7238C9.7238 7.43497 9.68762 7.69645 9.68762 7.95087H15.9682C15.9626 8.23477 15.9384 8.51804 15.8958 8.79893H9.69485C9.72115 9.05773 9.76223 9.31491 9.81787 9.56925H15.7583C15.6932 9.8166 15.6209 10.0639 15.534 10.3254H10.0132C10.1001 10.5869 10.2014 10.8413 10.3099 11.0957H15.1939C15.0588 11.3594 14.9065 11.6143 14.7381 11.859H10.7079C10.8662 12.1269 11.0427 12.3843 11.236 12.6293L14.1303 12.6717C13.8638 12.9274 13.5784 13.1636 13.2765 13.3784H11.88C12.7862 14.2811 13.9064 14.9513 15.1413 15.3298C16.3763 15.7082 17.6878 15.7832 18.9595 15.548C20.2312 15.3127 21.4238 14.7746 22.4315 13.9813C23.4392 13.188 24.231 12.1641 24.7365 11.0003C25.242 9.83658 25.4456 8.56896 25.3293 7.30991C25.213 6.05087 24.7804 4.83931 24.0698 3.78271C23.3592 2.7261 22.3927 1.8571 21.2558 1.25278C20.119 0.648455 18.847 0.327495 17.5528 0.318363Z" fill="#F4B459"/>
</svg>
