<svg width="29" height="10" viewBox="0 0 29 10" fill="none" xmlns="http://www.w3.org/2000/svg">
<path d="M11.1496 8.93876L12.575 1.09424H14.8036L13.4216 8.93876H11.1496Z" fill="#3C58BF"/>
<path d="M11.1496 8.93876L12.973 1.09424H14.8036L13.4216 8.93876H11.1496Z" fill="#293688"/>
<path d="M21.4961 1.1861C20.8399 0.943628 20.1428 0.823762 19.4412 0.832745C17.2126 0.832745 15.6063 1.92815 15.6063 3.48999C15.6063 4.6702 16.7206 5.27798 17.6178 5.67374C18.515 6.0695 18.7755 6.32391 18.7755 6.6702C18.7755 7.19317 18.052 7.45465 17.4369 7.45465C16.6891 7.47548 15.9464 7.32798 15.2662 7.02356L14.9551 6.88928L14.6584 8.67727C15.4709 8.97204 16.3314 9.1205 17.1982 9.11543C19.5642 9.11543 21.1271 8.02709 21.1271 6.36632C21.1271 5.45465 20.541 4.75501 19.2024 4.18964C18.4065 3.80094 17.9145 3.58186 17.9145 3.1861C17.9145 2.79034 18.3125 2.47939 19.2024 2.47939C19.7849 2.46115 20.3647 2.56476 20.9028 2.78328L21.1271 2.86808L21.4817 1.17197L21.4961 1.1861Z" fill="#3C58BF"/>
<path d="M21.4961 1.1861C20.8399 0.943628 20.1428 0.823762 19.4412 0.832745C17.2126 0.832745 16.0115 1.92815 16.0115 3.48999C16.007 3.97344 16.1603 4.44573 16.4491 4.83837C16.7379 5.23101 17.1473 5.52361 17.6178 5.67374C18.5078 6.06243 18.7755 6.32391 18.7755 6.6702C18.7755 7.19317 18.052 7.45465 17.4369 7.45465C16.6891 7.47548 15.9464 7.32798 15.2662 7.02356L14.9551 6.88928L14.6584 8.67727C15.4709 8.97204 16.3314 9.1205 17.1982 9.11543C19.5642 9.11543 21.1271 8.02709 21.1271 6.36632C21.1271 5.45465 20.541 4.75501 19.2024 4.18964C18.4065 3.80094 17.9145 3.58186 17.9145 3.1861C17.9145 2.79034 18.3125 2.47939 19.2024 2.47939C19.7849 2.46115 20.3647 2.56476 20.9028 2.78328L21.1271 2.86808L21.4817 1.17197L21.4961 1.1861Z" fill="#293688"/>
<path d="M25.332 1.09424C24.7966 1.09424 24.3986 1.14371 24.1743 1.66668L20.8242 8.93876H23.2337L23.6823 7.63134H26.5331L26.8009 8.93876H28.9715L27.0975 1.09424H25.332ZM24.3046 6.32392C24.442 5.93523 25.2018 4.01297 25.2018 4.01297C25.2018 4.01297 25.3754 3.53947 25.5129 3.22851L25.6431 3.97056C25.6431 3.97056 26.0918 5.93523 26.1786 6.36632H24.3046V6.32392Z" fill="#3C58BF"/>
<path d="M25.8675 1.09424C25.332 1.09424 24.9341 1.14371 24.7098 1.66668L20.8242 8.93876H23.2337L23.6823 7.63134H26.5331L26.8009 8.93876H28.9715L27.0975 1.09424H25.8675ZM24.3046 6.32392C24.4854 5.88576 25.2018 4.01297 25.2018 4.01297C25.2018 4.01297 25.3754 3.53947 25.5129 3.22851L25.6431 3.97056C25.6431 3.97056 26.0918 5.93523 26.1786 6.36632H24.3046V6.32392Z" fill="#293688"/>
<path d="M7.04687 6.5853L6.82257 5.45456C6.25071 3.97715 5.13649 2.7604 3.69678 2.04113L5.70828 9.00933H8.14668L11.7645 1.17188H9.35503L7.04687 6.5853Z" fill="#3C58BF"/>
<path d="M7.04687 6.5853L6.82257 5.45456C6.25071 3.97715 5.13649 2.7604 3.69678 2.04113L5.70828 9.00933H8.14668L11.7645 1.17188H9.80364L7.04687 6.5853Z" fill="#293688"/>
<path d="M0.846313 1.09419L1.24426 1.18606C4.13852 1.83624 6.06321 3.48995 6.82295 5.42634L6.01978 1.72316C5.88231 1.20019 5.48436 1.06592 4.99234 1.06592L0.846313 1.09419Z" fill="#FFBC00"/>
<path d="M0.846313 1.09424C3.69715 1.75148 6.06321 3.4476 6.82295 5.41226L6.0632 2.31685C6.00734 2.08075 5.87087 1.87025 5.67624 1.71997C5.48162 1.5697 5.24043 1.48859 4.99234 1.49L0.846313 1.09424Z" fill="#F7981D"/>
<path d="M0.846313 1.09424C3.69715 1.75148 6.06321 3.4476 6.82295 5.41226L6.2875 3.70908C6.26053 3.43543 6.15908 3.17381 5.99368 2.95137C5.82828 2.72893 5.60496 2.55377 5.34688 2.44406L0.846313 1.09424Z" fill="#ED7C00"/>
<path d="M9.2763 6.32386L7.75681 4.86802L7.03324 6.52173L6.85235 5.4334C6.29217 3.94215 5.17566 2.71279 3.72656 1.9917L5.73808 8.9599H8.14754L9.2763 6.32386Z" fill="#051244"/>
<path d="M13.4216 8.93863L11.5042 7.02344L11.1496 8.93863H13.4216Z" fill="#051244"/>
<path d="M18.5512 6.23926C18.7321 6.40887 18.819 6.54314 18.7755 6.71982C18.7755 7.24279 18.052 7.50428 17.4369 7.50428C16.6885 7.52289 15.9458 7.37296 15.2662 7.06611L14.9551 6.93184L14.6584 8.71982C15.4709 9.0146 16.3314 9.16305 17.1982 9.15799C17.7878 9.19759 18.3795 9.12172 18.9387 8.93482C19.4978 8.74793 20.0131 8.45378 20.4542 8.06965L18.5512 6.23926Z" fill="#051244"/>
<path d="M21.1716 8.93901H23.2627L23.7113 7.63159H26.5622L26.8299 8.93901H29.0006L28.277 5.7588L25.513 3.22876L25.6432 3.93547C25.6432 3.93547 26.0919 5.89307 26.1787 6.33123H24.3047C24.4855 5.89307 25.2019 4.02028 25.2019 4.02028C25.2019 4.02028 25.3755 3.54678 25.513 3.23583" fill="#051244"/>
</svg>
